<svg xmlns="http://www.w3.org/2000/svg" width="500" height="500" style="width:100%;height:100%;content-visibility:visible"><defs><clipPath id="a"><path d="M0 0h500v500H0z"/></clipPath></defs><g clip-path="url(#a)"><path stroke-linecap="round" stroke-linejoin="round" stroke="#121330" stroke-width="12.522" d="M299.81 249.131H148.19c-32.2 0-58.31-26.1-58.31-58.31v-74.25h320.24v74.25c0 3.62-.33 7.17-.97 10.61M297.15 188.871H149.21" fill="none" display="block"/><path stroke-linecap="round" stroke-linejoin="round" stroke="#FF385C" stroke-width="12.522" d="M290.364 216.688c0 33.339 27.027 60.366 60.366 60.366s60.366-27.027 60.366-60.366-27.027-60.366-60.366-60.366-60.366 27.027-60.366 60.366z" fill="none" display="block"/><path stroke-linecap="round" stroke-linejoin="round" stroke="#121330" stroke-width="12.522" d="M149.21 218.576H259" fill="none" display="block"/><g display="block"><path stroke-linecap="round" stroke-linejoin="round" stroke="#FF385C" stroke-width="12.522" d="M350.73 244.635v-55.894M322.783 216.688h55.894M330.969 196.927l39.522 39.522M330.969 236.449l39.522-39.522" fill="none"/></g><path stroke-linecap="round" stroke-linejoin="round" stroke="#FF385C" stroke-width="18.71" d="M149.211 146.322h.01" fill="none" display="block"/><path stroke-linecap="round" stroke-linejoin="round" stroke-dasharray="54 38" stroke-dashoffset="26" stroke="#FF385C" stroke-width="12.522" d="M289.981 417.811l-.115-140.598" fill="none" display="block"/><path stroke-linecap="round" stroke-linejoin="round" stroke-dasharray="77 136" stroke-dashoffset="-33" stroke="#FF385C" stroke-width="12.522" d="M249.481 417.705l-.115-140.599" fill="none" display="block"/><path stroke-linecap="round" stroke-linejoin="round" stroke-dasharray="33 154" stroke-dashoffset="-23" stroke="#FF385C" stroke-width="12.522" d="M167.924 343.205l-.058-66.099" fill="none" display="block"/><path stroke-linecap="round" stroke-linejoin="round" stroke="#FF385C" stroke-width="12.522" d="M150.15 359.403c-.129.121-.256.244-.383.369-4.159 4.092-8.229 9.771-8.229 22.659 0 18.539 15.214 33.569 33.981 33.569 18.767 0 33.981-15.03 33.981-33.569l-.009-105.372" fill="none" display="block"/></g></svg>