<svg xmlns="http://www.w3.org/2000/svg" width="500" height="500" style="width:100%;height:100%;content-visibility:visible"><defs><clipPath id="c"><path d="M0 0h500v500H0z"/></clipPath><clipPath id="b"><path d="M0 0h500v500H0z"/></clipPath><filter id="a" filterUnits="objectBoundingBox" x="0%" y="0%" width="100%" height="100%"><feComponentTransfer in="SourceGraphic"><feFuncA type="table" tableValues="1.0 0.0"/></feComponentTransfer></filter><mask id="d"><g filter="url(#a)"><g clip-path="url(#b)" display="block"><g display="block"><path fill="#FFF" d="M-609.367-409.258h-72.792v-57.743h72.792v57.743z" transform="translate(846 602.25)"/><path stroke-linecap="round" stroke-linejoin="round" fill-opacity="0" stroke="red" stroke-width="0" d="M236.633 192.992h-72.792v-57.743h72.792v57.743z"/></g><g display="block"><path fill="#FFF" d="M-609.367-409.258h-72.792v-57.743h72.792v57.743z" transform="translate(946.25 602.25)"/><path stroke-linecap="round" stroke-linejoin="round" fill-opacity="0" stroke="red" stroke-width="0" d="M336.883 192.992h-72.792v-57.743h72.792v57.743z"/></g><g display="block"><path fill="#FFF" d="M-723.704-384.085l-32.439 107.352h320.238l-32.248-106.721-46.495-.114-171.847-.425-37.209-.092z" transform="translate(846 607.25)"/><path stroke-linecap="round" stroke-linejoin="round" fill-opacity="0" stroke="#F00202" stroke-width="0" d="M122.296 223.165L89.857 330.517h320.238l-32.248-106.721-46.495-.114-171.847-.425-37.209-.092z"/></g></g></g></mask></defs><g clip-path="url(#c)"><g mask="url(#d)" display="block"><path stroke-linecap="round" stroke-linejoin="round" stroke="#121331" stroke-width="12.6" d="M364.347 179.121H135.605v-54.782c0-18.778 15.222-34 34-34h160.742c18.778 0 34 15.222 34 34v54.782zM364.347 179.121H135.605L89.857 330.517h320.238l-45.748-151.396z" fill="none"/></g><path stroke-linecap="round" stroke-linejoin="round" stroke="#121331" stroke-width="12.6" d="M89.857 383.891h320.238m0-53.374v80.06m-320.238-80.06v80.06" fill="none" display="block"/><path stroke-linecap="round" stroke-linejoin="round" stroke="#FF385C" stroke-width="12.6" d="M236.633 192.992h-72.792v-57.743h72.792v57.743zM336.883 192.992h-72.792v-57.743h72.792v57.743zM122.296 223.165L89.857 330.517h320.238l-32.248-106.721-46.495-.114-171.847-.425-37.209-.092z" fill="none" display="block"/></g></svg>