<svg xmlns="http://www.w3.org/2000/svg" width="500" height="500" style="width:100%;height:100%;content-visibility:visible"><defs><clipPath id="b"><path d="M0 0h500v500H0z"/></clipPath><filter id="a" filterUnits="objectBoundingBox" x="0%" y="0%" width="100%" height="100%"><feComponentTransfer in="SourceGraphic"><feFuncA type="table" tableValues="1.0 0.0"/></feComponentTransfer></filter><mask id="c"><g filter="url(#a)"><g display="block"><path fill="red" d="M274.21 204.71c0-.1-.01-.19-.01-.28-.08-15.53 14.76-41.05 41.06-41.05 26.3 0 41.14 25.52 41.05 41.05v.28h-82.1z"/></g></g></mask></defs><g clip-path="url(#b)"><g mask="url(#c)" display="block"><path stroke-linecap="round" stroke-linejoin="round" stroke="#121331" stroke-width="11.97" d="M287.064 203.872v-1.439a7.933 7.933 0 017.933-7.933h40.524a7.933 7.933 0 017.933 7.933v1.439" fill="none"/></g><path stroke-linecap="round" stroke-linejoin="round" stroke="#FF385C" stroke-width="11.97" d="M356.697 227.908h-82.876c-11.896 0-21.541-9.644-21.541-21.54v-1.654h125.958v1.654c0 11.896-9.645 21.54-21.541 21.54zM274.207 204.714l-.003-.281c-.081-15.532 14.753-41.056 41.055-41.056s41.136 25.524 41.055 41.056l-.003.281h-82.104zm41.052-41.337v-15.275" fill="none" display="block"/><path stroke-linecap="round" stroke-linejoin="round" stroke="#121331" stroke-width="11.97" d="M88.559 157.739l5.974 62.778a331.9 331.9 0 011.493 31.449v23.777c0 14.867 12.052 26.919 26.919 26.919h64.409v49.347c0 16.789-13.61 30.399-30.399 30.399H96.026m91.328-79.746c0-16.262-13.182-29.444-29.444-29.444H96.026M408.65 256.644H221.868v-28.736H408.65v28.736zm-153.161.625l-16.023 126.163M375.1 257.269l16.067 126.163" fill="none" display="block"/></g></svg>