<svg xmlns="http://www.w3.org/2000/svg" width="500" height="500" style="width:100%;height:100%;content-visibility:visible"><defs><clipPath id="a"><path d="M0 0h500v500H0z"/></clipPath></defs><g clip-path="url(#a)"><path stroke-linecap="round" stroke-linejoin="round" stroke="#121331" stroke-width="12.04" d="M343.403 382.407H156.597v-40.029h186.806v40.029zm-160.12 27.712v-26.686m133.433.5v26.186" fill="none" display="block"/><path stroke-linecap="round" stroke-linejoin="round" stroke="#000" stroke-width="11.016599999999999" d="M213.924 263.552c0-23.88 36.03-48.28 36.831-74.467 0 0 36.83 50.587 36.83 74.467 0 23.879-16.489 39.713-36.83 39.713-20.341 0-36.83-15.834-36.83-39.713z" fill="none" display="block"/><path stroke-linecap="round" stroke-linejoin="round" stroke="#000" stroke-width="11.016599999999999" d="M317.441 226.544c0 43.917-30.335 76.707-67.751 76.707-37.417 0-67.752-32.79-67.752-76.707 0-2.99.31-5.98.888-8.984 1.974-25.343 17.291-56.949 8.477-79.796 0 0 12.199 7.362 26.908 17.868 15.74-21.45 30.788-43.396 31.479-66.074 0 0 67.751 93.055 67.751 136.986z" fill="none" display="block"/></g></svg>