<svg xmlns="http://www.w3.org/2000/svg" width="500" height="500" style="width:100%;height:100%;content-visibility:visible"><defs><clipPath id="a"><path d="M0 0h500v500H0z"/></clipPath></defs><g clip-path="url(#a)"><g display="block"><path fill="#FFF" d="M267.75 158.437l1.93.17 52.99 4.86 50.5 12.3v-25.23l-50.5-13.3-45.03-5.39"/><path stroke-linecap="round" stroke-linejoin="round" stroke="#121330" stroke-width="12.522" d="M267.75 158.437l1.93.17 52.99 4.86 50.5 12.3v-25.23l-50.5-13.3-45.03-5.39" fill="none"/></g><g display="block"><path fill="#FFF" d="M263.25 110.877l109.92-21v23.16l-95.21 23.41"/><path stroke-linecap="round" stroke-linejoin="round" stroke="#121330" stroke-width="12.522" d="M263.25 110.877l109.92-21v23.16l-95.21 23.41" fill="none"/></g><g display="block"><path stroke-linecap="round" stroke-linejoin="round" stroke="#121330" stroke-width="12.522" d="M219.735 136.239h-20.067c-30.92 0-55.985 25.065-55.985 55.985v121.123M126.833 410.119h34.19l-6.209-96.772h-21.772l-6.209 96.772z" fill="none"/></g><g display="block"><path stroke-linecap="round" stroke-linejoin="round" stroke="#121330" stroke-width="12.522" d="M269.68 156.627v21.06c24.06 8.59 41.27 31.58 41.27 58.59v173.84H186.54v-173.84c0-27.01 17.21-50 41.27-58.59v-21.06" fill="none"/><path stroke-linecap="round" stroke-linejoin="round" stroke="#121330" stroke-width="12.522" d="M219.518 136.239c0-16.142 13.085-29.227 29.227-29.227s29.227 13.085 29.227 29.227-13.085 29.227-29.227 29.227-29.227-13.085-29.227-29.227z" fill="none"/><path stroke-linecap="round" stroke-linejoin="round" stroke="#FF385C" stroke-width="12.522" d="M234.723 331.761c0 8.558 6.937 15.495 15.495 15.495s15.495-6.937 15.495-15.495c0-15.495-15.495-22.272-15.495-35.307 0 0-15.495 19.812-15.495 35.307z" fill="none"/><path stroke-linecap="round" stroke-linejoin="round" stroke="#FF385C" stroke-width="12.522" d="M218.684 315.722c0 17.416 14.118 31.534 31.534 31.534 17.416 0 31.534-14.118 31.534-31.534 0-31.534-31.534-45.328-31.534-71.854 0 0-31.534 40.32-31.534 71.854z" fill="none"/></g></g></svg>