<svg xmlns="http://www.w3.org/2000/svg" width="500" height="500" style="width:100%;height:100%;content-visibility:visible"><defs><clipPath id="a"><path d="M0 0h500v500H0z"/></clipPath></defs><g display="block" clip-path="url(#a)"><path stroke-linecap="round" stroke-linejoin="round" stroke="#FF385C" stroke-width="12.522" d="M237.622 238.58v32.666h-34.775v34.775h-32.673v-34.775h-34.768V238.58h34.768v-34.775h32.673v34.775h34.775z" fill="none"/><path stroke-linecap="round" stroke-linejoin="round" stroke="#121330" stroke-width="12.522" d="M374.53 383.433H125.47c-16.069 0-29.216-13.148-29.216-29.217V194.174c0-16.069 13.147-29.217 29.216-29.217h249.06c16.069 0 29.216 13.148 29.216 29.217v160.042c0 16.069-13.147 29.217-29.216 29.217z" fill="none"/><path stroke-linecap="round" stroke-linejoin="round" stroke="#121330" stroke-width="12.522" d="M178.504 164.961c6.902-27.631 36.284-48.394 71.496-48.394 35.212 0 64.594 20.763 71.496 48.394M330.121 276.947h33.626M330.121 310.522h33.626M330.121 344.097h33.626" fill="none"/></g></svg>