<svg xmlns="http://www.w3.org/2000/svg" width="500" height="500" style="width:100%;height:100%;content-visibility:visible"><defs><clipPath id="a"><path d="M0 0h500v500H0z"/></clipPath></defs><g clip-path="url(#a)"><g display="block"><path stroke-linecap="round" stroke-linejoin="round" stroke="#121331" stroke-width="12.6" d="M162.538 88.044l-13.342 41.438m4.612 252.11V195.904h192.375v185.688m63.935-223.189H89.882v-28.921h320.236v28.921zm0 253.552H89.882l26.685-28.921h266.865l26.686 28.921zm-293.551-28.921V158.403m266.865 224.631V158.403m-45.979-70.359l13.342 41.438" fill="none"/><path stroke-linecap="round" stroke-linejoin="round" stroke="#FF385C" stroke-width="12.6" d="M209.969 357.465h80.06" fill="none"/></g><path stroke-linecap="round" stroke-linejoin="round" stroke="#FF385C" stroke-width="12.6" d="M297.904 278.822l-32.878 17.129-15.034-62.25-18.185 62.25-29.605-17.276s4.731 36.391 4.96 39.217c1.763 21.72 20.654 39.573 42.829 39.573s41.54-16.994 43.303-38.714c.228-2.804 4.61-39.929 4.61-39.929z" fill="none" display="block"/></g></svg>