<svg xmlns="http://www.w3.org/2000/svg" width="500" height="500" style="width:100%;height:100%;content-visibility:visible"><defs><clipPath id="a"><path d="M0 0h500v500H0z"/></clipPath><mask id="b"><path fill="red" d="M81.708 66.716H-81.708c-6.432 0-11.695-5.263-11.695-11.695V-55.021c0-6.432 5.263-11.695 11.695-11.695H81.708c6.432 0 11.695 5.263 11.695 11.695V55.021c0 6.432-5.263 11.695-11.695 11.695z" transform="translate(303.823 169.94)" display="block"/></mask></defs><g clip-path="url(#a)"><path stroke-linecap="round" stroke-linejoin="round" stroke="#121330" stroke-width="12.522" d="M128.274 196.34c.112-6.39 3.998-6.485 3.998-13.061 0-6.672-4-6.671-4-13.343M154.524 196.34c.112-6.39 3.998-6.485 3.998-13.061 0-6.672-4-6.671-4-13.343" fill="none" display="block"/><path stroke-linecap="round" stroke-linejoin="round" stroke="#FF385C" stroke-width="12.522" d="M143.254 276.687s0 0 0 0c-14.739 0-26.687-11.948-26.687-26.687v-26.687h53.374V250c0 14.739-11.948 26.687-26.687 26.687z" fill="none" display="block"/><g display="block"><path stroke-linecap="round" stroke-linejoin="round" stroke="#FF385C" stroke-width="12.522" d="M143.254 316.716v66.717h-26.687v-66.717m266.863-.004v66.72h-26.68v-66.72" fill="none"/><path stroke-linecap="round" stroke-linejoin="round" stroke="#121330" stroke-width="12.522" d="M410.119 316.716H89.881v-40.03h320.238v40.03z" fill="none"/></g><g opacity=".25" mask="url(#b)" display="block"><path stroke-linecap="round" stroke-linejoin="round" stroke="#FF385C" stroke-width="18.71" d="M175 77.5s-20.643 116.666 28.512 169.559C255.5 303 375.5 293 375.5 293" fill="none"/><path stroke-linecap="round" stroke-linejoin="round" stroke="#FF385C" stroke-width="18.71" d="M175 77.5s-20.643 116.666 28.512 169.559C255.5 303 375.5 293 375.5 293" fill="none"/><path stroke-linecap="round" stroke-linejoin="round" stroke="#FF385C" stroke-width="18.71" d="M175 77.5s-20.643 116.666 28.512 169.559C255.5 303 375.5 293 375.5 293" fill="none"/></g><g display="block"><path stroke-linecap="round" stroke-linejoin="round" stroke="#121330" stroke-width="12.522" d="M385.531 236.656H222.115c-6.432 0-11.695-5.263-11.695-11.695V114.919c0-6.432 5.263-11.695 11.695-11.695h163.416c6.432 0 11.695 5.263 11.695 11.695v110.042c0 6.432-5.263 11.695-11.695 11.695zM259.101 276.717c13.734-6.773 25-40.06 25-40.06M323.544 236.657s11.266 33.287 25 40.06" fill="none"/><path stroke-linecap="round" stroke-linejoin="round" stroke="#FF385C" stroke-width="18.71" d="M303.779 215.177h.088" fill="none"/></g></g></svg>