<svg xmlns="http://www.w3.org/2000/svg" width="500" height="500" style="width:100%;height:100%;content-visibility:visible"><defs><clipPath id="a"><path d="M0 0h500v500H0z"/></clipPath></defs><g clip-path="url(#a)"><g display="block"><path stroke-linecap="round" stroke-linejoin="round" stroke="#121330" stroke-width="12.522" d="M89.222 369.614V189.862c0-27.926 22.638-50.564 50.564-50.564h.001c7.666 0 14.088 2.827 23.397 9.995m-6.991 82.055l89.138-89.138" fill="none"/><path stroke-linecap="round" stroke-linejoin="round" stroke="#121330" stroke-width="12.522" d="M164.102 223.439c-20.247-20.247-20.247-53.073 0-73.32 20.247-20.247 53.073-20.247 73.32 0" fill="none"/></g><path stroke-linecap="round" stroke-linejoin="round" stroke-dasharray="20 30" stroke="#FF385C" stroke-width="12.522" d="M264.919 171.155c32.544 31.669 94.653 99.876 144.542 193.076M237.957 192.558c30.929 32.579 92.193 94.077 131.826 171.674M214.355 215.896c32.435 32.301 72.823 78.248 115.794 148.336M190.754 241.508c19.558 18.528 67.016 69.324 96.426 122.724" fill="none" display="block"/></g></svg>