<svg xmlns="http://www.w3.org/2000/svg" width="500" height="500" style="width:100%;height:100%;content-visibility:visible"><defs><clipPath id="a"><path d="M0 0h500v500H0z"/></clipPath></defs><g clip-path="url(#a)"><path stroke-linecap="round" stroke-linejoin="round" stroke="#121330" stroke-width="12.522" d="M294.015 370.001v40.118h-88.03v-40.118" fill="none" display="block"/><g display="block"><path stroke-linecap="round" stroke-linejoin="round" stroke="#121330" stroke-width="12.522" d="M326.18 148.029v45.6L306 370.001H194l-20.18-176.372v-45.6c0-33.77 27.38-61.15 61.15-61.15h30.06c33.77 0 61.15 27.38 61.15 61.15z" fill="none"/><path stroke-linecap="round" stroke-linejoin="round" stroke="#121330" stroke-width="12.522" d="M293.129 163.499h-86.258v-13.122c0-18.158 14.721-32.878 32.879-32.878h20.5c18.158 0 32.879 14.72 32.879 32.878v13.122zM216.473 267h67.054c5.303 0 9.602-4.298 9.602-9.601v-31.872c0-5.303-4.299-9.601-9.602-9.601h-67.054c-5.303 0-9.602 4.298-9.602 9.601v31.872c0 5.303 4.299 9.601 9.602 9.601z" fill="none"/><path stroke-linecap="round" stroke-linejoin="round" stroke="#FF385C" stroke-width="12.522" d="M239.836 296.114l-.084 45.934M239.839 296.03h14.1c6.77 0 12.31 5.54 12.31 12.31 0 3.38-1.39 6.46-3.62 8.69-2.23 2.23-5.31 3.62-8.69 3.62h-14.15" fill="none"/><path stroke-linecap="round" stroke-linejoin="round" stroke="#121330" stroke-width="12.522" d="M265.874 241.463h-31.748" fill="none"/><g><path stroke-linecap="round" stroke-linejoin="round" stroke="#FF385C" stroke-width="12.522" d="M215.593 189.503h.18M249.91 189.503h.18M284.227 189.503h.18" fill="none"/></g></g></g></svg>