<svg xmlns="http://www.w3.org/2000/svg" width="500" height="500" style="width:100%;height:100%;content-visibility:visible"><defs><clipPath id="b"><path d="M0 0h500v500H0z"/></clipPath><filter id="a" filterUnits="objectBoundingBox" x="0%" y="0%" width="100%" height="100%"><feComponentTransfer in="SourceGraphic"><feFuncA type="table" tableValues="1.0 0.0"/></feComponentTransfer></filter><mask id="c"><g filter="url(#a)"><path fill="#FFF" d="M13.068-13.068L36.963 0 13.068 13.068 0 36.963l-13.068-23.895L-36.963 0l23.895-13.068L0-36.963l13.068 23.895z" transform="translate(156.597 166.874)" display="block"/></g></mask></defs><g clip-path="url(#b)"><path stroke-linecap="round" stroke-linejoin="round" stroke="#121331" stroke-width="12.04" d="M320.71 331.573l34.37 78.55H144.92l34.37-78.55" fill="none" display="block"/><g mask="url(#c)" display="block"><path stroke-linecap="round" stroke-linejoin="round" stroke="#121331" stroke-width="12.04" d="M367.838 234.405c0 65.08-52.758 117.838-117.838 117.838-65.08 0-117.838-52.758-117.838-117.838 0-65.08 52.758-117.838 117.838-117.838 65.08 0 117.838 52.758 117.838 117.838z" fill="none"/></g><path stroke-linecap="round" stroke-linejoin="round" stroke="#FF385C" stroke-width="12.04" d="M280.752 150.037c17.88 6.519 33.105 18.561 43.611 34.06a89.325 89.325 0 0112.383 27.106M169.665 153.806l23.895 13.068-23.895 13.068-13.068 23.895-13.068-23.895-23.895-13.068 23.895-13.068 13.068-23.895 13.068 23.895zM293.993 247.671l31.7 17.337-31.7 17.337-17.337 31.7-17.337-31.7-31.7-17.337 31.7-17.337 17.337-31.7 17.337 31.7z" fill="none" display="block"/><path stroke-linecap="round" stroke-linejoin="round" stroke="#121331" stroke-width="12.04" d="M341.75 379.663h-183.5" fill="none" display="block"/></g></svg>