<svg xmlns="http://www.w3.org/2000/svg" width="500" height="500" style="width:100%;height:100%;content-visibility:visible"><defs><clipPath id="a"><path d="M0 0h500v500H0z"/></clipPath></defs><g clip-path="url(#a)"><g display="block"><path stroke-linecap="round" stroke-linejoin="round" stroke="#121330" stroke-width="12.522" d="M357.713 169.94H142.288a18.566 18.566 0 01-18.22-15.004l-7.5-38.369h266.865l-7.5 38.369a18.565 18.565 0 01-18.22 15.004zm-11.202 106.746H153.489c-5.653 0-10.235-4.582-10.235-10.235v-46.246c0-5.653 4.582-10.235 10.235-10.235h193.022c5.653 0 10.235 4.582 10.235 10.235v46.246c0 5.653-4.582 10.235-10.235 10.235zm-176.57-66.716v-40.03m160.119 0v40.03m-160.118 66.716v-33.358m26.686 33.358v-33.358m26.687 33.358v-33.358m26.686 33.358v-33.358m26.687 33.358v-33.358m26.686 33.358v-33.358m26.687 33.358v-33.358" fill="none"/><path stroke-linecap="round" stroke-linejoin="round" stroke="#FF385C" stroke-width="16.598" d="M317.75 143.461s0 0 0 0" fill="none"/></g><path stroke-linecap="round" stroke-linejoin="round" stroke="#FF385C" stroke-width="12.522" d="M205.338 310.962c0 16.494-12.15 16.493-12.15 32.987 0 16.496 12.15 16.496 12.15 32.992v.002c0 16.494-12.15 16.494-12.15 32.988 0 .494.011.973.032 1.439M256.338 310.962c0 16.494-12.15 16.493-12.15 32.987 0 16.496 12.15 16.496 12.15 32.992v.002c0 16.494-12.15 16.494-12.15 32.988 0 .494.011.973.032 1.439M307.338 310.962c0 16.494-12.15 16.493-12.15 32.987 0 16.496 12.15 16.496 12.15 32.992v.002c0 16.494-12.15 16.494-12.15 32.988 0 .494.011.973.032 1.439" fill="none" display="block"/></g></svg>