<svg xmlns="http://www.w3.org/2000/svg" width="500" height="500" style="width:100%;height:100%;content-visibility:visible"><defs><clipPath id="a"><path d="M0 0h500v500H0z"/></clipPath></defs><g clip-path="url(#a)"><g display="block"><path stroke-linecap="round" stroke-linejoin="round" stroke="#FF385C" stroke-width="16.671" d="M156.597 115.904s0 0 0 0M189.906 115.904s0 0 0 0M223.214 115.904s0 0 0 0" fill="none"/><g><path stroke-linecap="round" stroke-linejoin="round" stroke="#121330" stroke-width="12.449" d="M129.642 143.119l.269-53.238h240.178l-.268 53.238" fill="none"/></g></g><g display="block"><path stroke-linecap="round" stroke-linejoin="round" stroke="#121330" stroke-width="12.449" d="M370.089 410.119H129.911L130 143.381h240.179l-.09 266.738z" fill="none"/><path stroke-linecap="round" stroke-linejoin="round" stroke="#121330" stroke-width="12.449" d="M296.701 143.254l-6.03 16.424a15.659 15.659 0 01-14.7 10.262h-51.942a15.659 15.659 0 01-14.7-10.262l-6.03-16.424M129.973 143.254h239.835" fill="none"/><path stroke-linecap="round" stroke-linejoin="round" stroke="#FF385C" stroke-width="12.449" d="M338.711 284c0 25.522-20.689 46.212-46.211 46.212s-46.211-20.69-46.211-46.212c0-25.522 20.689-46.211 46.211-46.211s46.211 20.689 46.211 46.211zm-142.084 6.45s0 0 0 0c-12.162 0-22.326-9.255-23.46-21.364l-2.946-31.448h52.812l-2.946 31.448c-1.134 12.109-11.298 21.364-23.46 21.364zm0 0v39.61m19.46 0h-38.92" fill="none"/></g></g></svg>